<mxfile host="app.diagrams.net" modified="2024-06-02T17:56:58.410Z" agent="Mozilla/5.0 (Windows NT 10.0; Win64; x64) AppleWebKit/537.36 (KHTML, like Gecko) Chrome/122.0.0.0 YaBrowser/24.4.0.0 Safari/537.36" etag="Rz_78Zte70bxa4oCwMTF" version="24.4.13" type="device">
  <diagram name="Page-1" id="c4acf3e9-155e-7222-9cf6-157b1a14988f">
    <mxGraphModel dx="1386" dy="791" grid="1" gridSize="10" guides="1" tooltips="1" connect="1" arrows="1" fold="1" page="1" pageScale="1" pageWidth="850" pageHeight="1100" background="none" math="0" shadow="0">
      <root>
        <mxCell id="0" />
        <mxCell id="1" parent="0" />
        <mxCell id="5d2195bd80daf111-39" style="edgeStyle=orthogonalEdgeStyle;rounded=0;html=1;dashed=1;labelBackgroundColor=none;startFill=0;endArrow=open;endFill=0;endSize=10;fontFamily=Verdana;fontSize=10;" parent="1" edge="1">
          <mxGeometry relative="1" as="geometry">
            <mxPoint x="730" y="948" as="sourcePoint" />
            <mxPoint x="730" y="978" as="targetPoint" />
          </mxGeometry>
        </mxCell>
        <mxCell id="Mss-8b-Z_4xSyvdxzNxD-4" style="edgeStyle=orthogonalEdgeStyle;rounded=0;orthogonalLoop=1;jettySize=auto;html=1;exitX=1;exitY=0.25;exitDx=0;exitDy=0;startArrow=diamond;startFill=0;" edge="1" parent="1" source="5d2195bd80daf111-18" target="Mss-8b-Z_4xSyvdxzNxD-1">
          <mxGeometry relative="1" as="geometry" />
        </mxCell>
        <mxCell id="5d2195bd80daf111-18" value="&lt;p style=&quot;margin:0px;margin-top:4px;text-align:center;&quot;&gt;&lt;i&gt;class HogwartsStudent&lt;/i&gt;&lt;/p&gt;&lt;hr size=&quot;1&quot;&gt;&lt;p style=&quot;margin:0px;margin-left:4px;&quot;&gt;#name:str&lt;/p&gt;&lt;p style=&quot;margin:0px;margin-left:4px;&quot;&gt;#house:str&lt;/p&gt;&lt;p style=&quot;margin:0px;margin-left:4px;&quot;&gt;#mana:int&lt;/p&gt;&lt;p style=&quot;margin:0px;margin-left:4px;&quot;&gt;#is_paralyzed:bool&lt;/p&gt;&lt;p style=&quot;margin:0px;margin-left:4px;&quot;&gt;#turns_paralyzed:int&lt;/p&gt;&lt;p style=&quot;margin:0px;margin-left:4px;&quot;&gt;#spellbook:list(class_Spell)&lt;br&gt;&lt;/p&gt;&lt;hr size=&quot;1&quot;&gt;&lt;p style=&quot;margin:0px;margin-left:4px;&quot;&gt;+get_name():str&lt;/p&gt;&lt;p style=&quot;margin:0px;margin-left:4px;&quot;&gt;+get_house():str&lt;/p&gt;&lt;p style=&quot;margin:0px;margin-left:4px;&quot;&gt;+get_mana():int&lt;/p&gt;&lt;p style=&quot;margin:0px;margin-left:4px;&quot;&gt;+get_spellbook():list&lt;/p&gt;&lt;p style=&quot;margin:0px;margin-left:4px;&quot;&gt;+is_paralyzed():bool&lt;/p&gt;&lt;p style=&quot;margin:0px;margin-left:4px;&quot;&gt;+set_name(name:str)&lt;/p&gt;&lt;p style=&quot;margin:0px;margin-left:4px;&quot;&gt;+set_house(house:str)&lt;/p&gt;&lt;p style=&quot;margin:0px;margin-left:4px;&quot;&gt;+set_mana(mana:int)&lt;/p&gt;&lt;p style=&quot;margin:0px;margin-left:4px;&quot;&gt;+set_paralyzed(is_paralyzed:bool)&lt;/p&gt;&lt;p style=&quot;margin:0px;margin-left:4px;&quot;&gt;+set_paralyzed_turns(turns:int)&lt;/p&gt;&lt;p style=&quot;margin:0px;margin-left:4px;&quot;&gt;+learn_spell(spell:Spell)&lt;/p&gt;&lt;p style=&quot;margin:0px;margin-left:4px;&quot;&gt;+cast_spell(target:HogwartsStudent)&lt;/p&gt;&lt;p style=&quot;margin:0px;margin-left:4px;&quot;&gt;__str__&lt;/p&gt;" style="verticalAlign=top;align=left;overflow=fill;fontSize=12;fontFamily=Helvetica;html=1;rounded=0;shadow=0;comic=0;labelBackgroundColor=none;strokeWidth=1" parent="1" vertex="1">
          <mxGeometry x="20" y="27" width="210" height="363" as="geometry" />
        </mxCell>
        <mxCell id="Mss-8b-Z_4xSyvdxzNxD-1" value="&lt;p style=&quot;margin:0px;margin-top:4px;text-align:center;&quot;&gt;&lt;i&gt;class Spell&lt;/i&gt;&lt;/p&gt;&lt;hr size=&quot;1&quot;&gt;&lt;p style=&quot;margin:0px;margin-left:4px;&quot;&gt;#name:str&lt;/p&gt;&lt;p style=&quot;margin:0px;margin-left:4px;&quot;&gt;#description:str&lt;/p&gt;&lt;p style=&quot;margin:0px;margin-left:4px;&quot;&gt;#mana_cost:int&lt;/p&gt;&lt;hr size=&quot;1&quot;&gt;&lt;p style=&quot;margin:0px;margin-left:4px;&quot;&gt;+get_name():str&lt;/p&gt;&lt;p style=&quot;margin:0px;margin-left:4px;&quot;&gt;+get_description():str&lt;/p&gt;&lt;p style=&quot;margin:0px;margin-left:4px;&quot;&gt;+get_mana_cost():int&lt;/p&gt;&lt;p style=&quot;margin:0px;margin-left:4px;&quot;&gt;+set_name(name:str)&lt;/p&gt;&lt;p style=&quot;margin:0px;margin-left:4px;&quot;&gt;+set_description(description:str)&lt;/p&gt;&lt;p style=&quot;margin:0px;margin-left:4px;&quot;&gt;+set_mana_cost(mana:int)&lt;/p&gt;&lt;p style=&quot;margin:0px;margin-left:4px;&quot;&gt;+cast_spell(target:HogwartsStudent)&lt;/p&gt;&lt;p style=&quot;margin:0px;margin-left:4px;&quot;&gt;__str__&lt;/p&gt;" style="verticalAlign=top;align=left;overflow=fill;fontSize=12;fontFamily=Helvetica;html=1;rounded=0;shadow=0;comic=0;labelBackgroundColor=none;strokeWidth=1" vertex="1" parent="1">
          <mxGeometry x="580" y="140" width="220" height="203" as="geometry" />
        </mxCell>
        <mxCell id="Mss-8b-Z_4xSyvdxzNxD-5" style="edgeStyle=orthogonalEdgeStyle;rounded=0;orthogonalLoop=1;jettySize=auto;html=1;exitX=0.75;exitY=0;exitDx=0;exitDy=0;startArrow=diamond;startFill=0;" edge="1" parent="1" source="Mss-8b-Z_4xSyvdxzNxD-2" target="Mss-8b-Z_4xSyvdxzNxD-1">
          <mxGeometry relative="1" as="geometry" />
        </mxCell>
        <mxCell id="Mss-8b-Z_4xSyvdxzNxD-2" value="&lt;p style=&quot;margin:0px;margin-top:4px;text-align:center;&quot;&gt;&lt;i&gt;class Hogwarts&lt;/i&gt;&lt;/p&gt;&lt;hr size=&quot;1&quot;&gt;&lt;p style=&quot;margin:0px;margin-left:4px;&quot;&gt;#student:list(class_HogwartsStudent)&lt;/p&gt;&lt;p style=&quot;margin:0px;margin-left:4px;&quot;&gt;#spells:list(class_Spells)&lt;/p&gt;&lt;hr size=&quot;1&quot;&gt;&lt;p style=&quot;margin:0px;margin-left:4px;&quot;&gt;+get_student():list&lt;/p&gt;&lt;p style=&quot;margin:0px;margin-left:4px;&quot;&gt;+get_spells():list&lt;/p&gt;&lt;p style=&quot;margin:0px;margin-left:4px;&quot;&gt;+enroll_student(student:HogwartsStudent)&lt;/p&gt;&lt;p style=&quot;margin:0px;margin-left:4px;&quot;&gt;+teach_spell(spell:Spell)&lt;/p&gt;&lt;p style=&quot;margin:0px;margin-left:4px;&quot;&gt;+simulate_duel(student1,student2)&lt;/p&gt;&lt;p style=&quot;margin:0px;margin-left:4px;&quot;&gt;&lt;br&gt;&lt;/p&gt;" style="verticalAlign=top;align=left;overflow=fill;fontSize=12;fontFamily=Helvetica;html=1;rounded=0;shadow=0;comic=0;labelBackgroundColor=none;strokeWidth=1" vertex="1" parent="1">
          <mxGeometry x="230" y="570" width="250" height="160" as="geometry" />
        </mxCell>
        <mxCell id="Mss-8b-Z_4xSyvdxzNxD-3" style="edgeStyle=orthogonalEdgeStyle;rounded=0;orthogonalLoop=1;jettySize=auto;html=1;exitX=0.25;exitY=0;exitDx=0;exitDy=0;entryX=0.686;entryY=1.008;entryDx=0;entryDy=0;entryPerimeter=0;startArrow=diamond;startFill=0;" edge="1" parent="1" source="Mss-8b-Z_4xSyvdxzNxD-2" target="5d2195bd80daf111-18">
          <mxGeometry relative="1" as="geometry" />
        </mxCell>
      </root>
    </mxGraphModel>
  </diagram>
</mxfile>
